<svg width="24" height="24" viewBox="0 0 24 24" fill="none" xmlns="http://www.w3.org/2000/svg">
<path d="M8.49112 11.29L14.1511 5.64004C14.2441 5.54631 14.3547 5.47191 14.4765 5.42115C14.5984 5.37038 14.7291 5.34424 14.8611 5.34424C14.9931 5.34424 15.1238 5.37038 15.2457 5.42115C15.3676 5.47191 15.4782 5.54631 15.5711 5.64004C15.7574 5.8274 15.8619 6.08085 15.8619 6.34504C15.8619 6.60922 15.7574 6.86267 15.5711 7.05004L10.6211 12.05L15.5711 17C15.7574 17.1874 15.8619 17.4409 15.8619 17.705C15.8619 17.9692 15.7574 18.2227 15.5711 18.41C15.4785 18.5045 15.3681 18.5797 15.2462 18.6312C15.1243 18.6827 14.9934 18.7095 14.8611 18.71C14.7288 18.7095 14.5979 18.6827 14.4761 18.6312C14.3542 18.5797 14.2437 18.5045 14.1511 18.41L8.49112 12.76C8.38962 12.6664 8.30861 12.5527 8.2532 12.4262C8.19779 12.2997 8.16919 12.1631 8.16919 12.025C8.16919 11.8869 8.19779 11.7503 8.2532 11.6238C8.30861 11.4973 8.38962 11.3837 8.49112 11.29Z" fill="current"/>
</svg>
