<svg width="24" height="24" viewBox="0 0 24 24" fill="none" xmlns="http://www.w3.org/2000/svg">
<path d="M11.2784 8.32193L5.62844 13.9819C5.53471 14.0749 5.46032 14.1855 5.40955 14.3074C5.35878 14.4292 5.33264 14.5599 5.33264 14.6919C5.33264 14.8239 5.35878 14.9547 5.40955 15.0765C5.46032 15.1984 5.53471 15.309 5.62844 15.4019C5.8158 15.5882 6.06925 15.6927 6.33344 15.6927C6.59763 15.6927 6.85108 15.5882 7.03844 15.4019L12.0384 10.4519L16.9884 15.4019C17.1758 15.5882 17.4293 15.6927 17.6934 15.6927C17.9576 15.6927 18.2111 15.5882 18.3984 15.4019C18.4929 15.3093 18.5681 15.1989 18.6196 15.077C18.6711 14.9551 18.6979 14.8242 18.6984 14.6919C18.6979 14.5596 18.6711 14.4287 18.6196 14.3069C18.5681 14.185 18.4929 14.0745 18.3984 13.9819L12.7484 8.32193C12.6548 8.22043 12.5411 8.13942 12.4146 8.08401C12.2881 8.0286 12.1515 8 12.0134 8C11.8753 8 11.7387 8.0286 11.6122 8.08401C11.4857 8.13942 11.3721 8.22043 11.2784 8.32193Z" fill="current"/>
</svg>
