<svg width="20" height="20" viewBox="0 0 20 20" fill="current" xmlns="http://www.w3.org/2000/svg">
<path d="M8.27695 11.6075C8.96979 12.3284 9.71515 12.9969 10.5069 13.6075C10.8563 13.8756 11.2799 14.0299 11.7198 14.0496C12.1598 14.0693 12.5952 13.9533 12.9671 13.7175L13.4969 13.3876C13.8795 13.126 14.3351 12.9919 14.7984 13.0044C15.2617 13.017 15.7091 13.1756 16.077 13.4575L18.557 15.4575C18.6768 15.5516 18.7754 15.67 18.8463 15.8048C18.9171 15.9397 18.9587 16.088 18.9681 16.2401C18.9776 16.3921 18.9546 16.5445 18.901 16.6871C18.8474 16.8297 18.7644 16.9594 18.6571 17.0675V17.0675C17.7019 18.0252 16.4712 18.6605 15.1373 18.8846C13.8034 19.1087 12.4329 18.9105 11.2171 18.3175C9.15464 17.302 7.27555 15.9502 5.65708 14.3175C4.02401 12.7032 2.67207 10.8273 1.65708 8.76749C1.06505 7.55058 0.866285 6.17963 1.08847 4.8447C1.31066 3.50978 1.94278 2.27709 2.89707 1.31754V1.31754C3.00457 1.2097 3.13352 1.12576 3.27573 1.07133C3.41794 1.01689 3.57023 0.993187 3.72226 1.00169C3.8743 1.01018 4.02279 1.0507 4.15805 1.12064C4.29331 1.19059 4.41212 1.28835 4.50693 1.40751L6.50693 3.8975C6.78348 4.24777 6.9455 4.67482 6.97055 5.1204C6.99561 5.56598 6.88261 6.00848 6.64707 6.38755L6.25693 6.99754C6.02243 7.36943 5.90655 7.80378 5.92441 8.24308C5.94227 8.68238 6.09311 9.10586 6.35703 9.4575C6.95479 10.2481 7.60629 10.9966 8.30698 11.6975L8.27695 11.6075Z" stroke="current" stroke-width="2" stroke-linejoin="round"/>
</svg>
