<svg width="22" height="20" viewBox="0 0 22 20" fill="none" xmlns="http://www.w3.org/2000/svg">
<path d="M21 4C21 4.79565 20.6837 5.55873 20.1211 6.12134C19.5585 6.68395 18.7956 7 18 7C17.2044 7 16.4413 6.68395 15.8787 6.12134C15.3161 5.55873 15 4.79565 15 4C15 3.20435 15.3161 2.44127 15.8787 1.87866C16.4413 1.31605 17.2044 1 18 1C18.7956 1 19.5585 1.31605 20.1211 1.87866C20.6837 2.44127 21 3.20435 21 4Z" stroke="current" stroke-width="2" stroke-miterlimit="10"/>
<path d="M6.67969 8.66009L15.3197 5.34009" stroke="current" stroke-width="2" stroke-miterlimit="10"/>
<path d="M7 10C7 10.7956 6.6837 11.5587 6.12109 12.1213C5.55848 12.6839 4.79565 13 4 13C3.20435 13 2.44127 12.6839 1.87866 12.1213C1.31605 11.5587 1 10.7956 1 10C1 9.20435 1.31605 8.44127 1.87866 7.87866C2.44127 7.31605 3.20435 7 4 7C4.79565 7 5.55848 7.31605 6.12109 7.87866C6.6837 8.44127 7 9.20435 7 10Z" stroke="current" stroke-width="2" stroke-miterlimit="10"/>
<path d="M21 16C21 16.7956 20.6837 17.5587 20.1211 18.1213C19.5585 18.6839 18.7956 19 18 19C17.2044 19 16.4413 18.6839 15.8787 18.1213C15.3161 17.5587 15 16.7956 15 16C15 15.2044 15.3161 14.4413 15.8787 13.8787C16.4413 13.3161 17.2044 13 18 13C18.7956 13 19.5585 13.3161 20.1211 13.8787C20.6837 14.4413 21 15.2044 21 16Z" stroke="current" stroke-width="2" stroke-miterlimit="10"/>
<path d="M15.32 14.66L7 11.5" stroke="current" stroke-width="2" stroke-miterlimit="10"/>
</svg>
